<!DOCTYPE svg PUBLIC "-//W3C//DTD SVG 20010904//EN" "http://www.w3.org/TR/2001/REC-SVG-20010904/DTD/svg10.dtd">
<svg version="1.0" xmlns="http://www.w3.org/2000/svg" width="820px" height="362px" viewBox="0 0 8200 3620" preserveAspectRatio="xMidYMid meet">
<g id="layer1" fill="#000000" stroke="none">
 <path d="M6150 3379 c-190 -32 -344 -203 -386 -429 -20 -103 -14 -304 10 -395 39 -143 150 -291 259 -344 103 -50 250 -66 352 -39 l45 12 0 163 0 163 -42 -27 c-35 -24 -52 -28 -109 -28 -60 0 -71 3 -106 31 -75 61 -109 173 -100 328 11 168 86 266 203 266 48 0 125 -27 138 -49 22 -34 27 -3 21 122 -9 202 -7 194 -68 211 -73 21 -152 26 -217 15z"/>
 <path d="M1320 2803 c75 -313 139 -580 143 -595 l7 -28 194 0 c193 0 194 0 199 23 3 12 58 270 122 572 64 303 119 560 122 573 l5 22 -165 0 -165 0 -7 -57 c-13 -113 -2 -104 -128 -101 l-111 3 -8 45 c-4 25 -10 60 -13 78 l-6 32 -163 0 -163 0 137 -567z m398 135 c-3 -18 -15 -123 -27 -233 -29 -256 -32 -268 -43 -180 -5 39 -22 152 -38 253 -17 100 -30 185 -30 187 0 3 32 5 71 5 l71 0 -4 -32z"/>
 <path d="M2190 3353 c1 -10 31 -277 68 -593 l68 -575 197 -3 197 -2 5 22 c16 71 77 464 82 530 6 76 23 100 23 33 0 -27 62 -387 96 -552 l7 -33 196 0 196 0 54 558 c29 306 55 574 58 595 l6 37 -167 0 -166 0 0 -27 c0 -16 -7 -163 -15 -328 -8 -165 -15 -324 -15 -354 0 -79 -9 -57 -25 60 -7 57 -36 224 -64 370 -28 146 -51 269 -51 272 0 4 -58 7 -129 7 l-128 0 -47 -287 c-25 -159 -52 -331 -59 -383 l-13 -95 -7 115 c-4 63 -11 221 -17 350 -6 129 -13 250 -16 268 l-5 32 -164 0 c-151 0 -165 -2 -165 -17z"/>
 <path d="M3590 2775 l0 -595 295 0 295 0 0 135 0 135 -140 0 -140 0 0 90 0 90 125 0 125 0 0 135 0 135 -125 0 -126 0 3 93 3 92 138 3 137 3 0 139 0 140 -295 0 -295 0 0 -595z"/>
 <path d="M4330 2775 l0 -595 213 0 c297 0 385 24 480 129 62 69 80 120 85 246 4 109 4 111 -30 175 -30 58 -66 95 -132 135 -14 9 -1 40 103 255 l118 245 -165 3 c-91 1 -169 -1 -173 -5 -4 -5 -47 -115 -95 -247 l-89 -239 -3 247 -2 246 -155 0 -155 0 0 -595z m406 -64 c58 -35 83 -144 49 -210 -16 -33 -69 -61 -114 -61 l-31 0 0 145 0 145 33 0 c17 0 46 -9 63 -19z"/>
 <path d="M5290 2775 l0 -595 155 0 155 0 0 595 0 595 -155 0 -155 0 0 -595z"/>
 <path d="M6650 2803 c75 -313 139 -580 143 -595 l7 -28 194 0 c193 0 194 0 199 23 3 12 58 270 122 572 64 303 119 560 122 573 l5 22 -165 0 -165 0 -7 -57 c-13 -113 -2 -104 -128 -101 l-111 3 -8 45 c-4 25 -10 60 -13 78 l-6 32 -163 0 -163 0 137 -567z m398 135 c-3 -18 -15 -123 -27 -233 -29 -256 -32 -268 -43 -180 -5 39 -22 152 -38 253 -17 100 -30 185 -30 187 0 3 32 5 71 5 l71 0 -4 -32z"/>
 <path d="M670 2365 l0 -185 70 0 c68 0 70 1 70 25 0 23 -4 25 -45 25 l-45 0 0 60 0 60 35 0 c28 0 35 4 35 20 0 16 -7 20 -35 20 l-35 0 0 80 c0 79 0 80 -25 80 l-25 0 0 -185z"/>
 <path d="M870 2530 c-28 -28 -32 -54 -28 -190 3 -114 5 -123 27 -141 13 -10 36 -19 51 -19 75 0 90 32 90 185 0 154 -15 185 -91 185 -16 0 -38 -9 -49 -20z m90 -165 c0 -109 -2 -125 -18 -134 -11 -6 -24 -6 -35 0 -15 9 -17 27 -17 134 0 107 2 125 17 134 11 6 24 6 35 0 16 -9 18 -25 18 -134z"/>
 <path d="M1060 2364 l0 -187 62 6 c48 4 67 11 80 27 23 28 24 107 2 138 -13 19 -14 25 -2 39 7 9 15 49 18 90 l5 74 -25 -3 c-23 -3 -25 -7 -30 -73 -5 -68 -6 -70 -32 -73 l-28 -3 0 75 c0 74 -1 76 -25 76 l-25 0 0 -186z m99 -28 c7 -8 11 -34 9 -58 -3 -39 -6 -43 -30 -46 -28 -3 -28 -3 -28 57 0 53 2 61 19 61 10 0 24 -6 30 -14z"/>
 <path d="M660 2044 c0 -6 166 -699 181 -756 l10 -38 194 0 193 0 12 53 c6 28 42 201 81 382 38 182 72 338 75 348 5 16 -17 17 -370 17 -207 0 -376 -3 -376 -6z m438 -36 c-3 -18 -15 -123 -27 -233 -29 -256 -32 -268 -43 -180 -5 39 -22 152 -38 253 -17 100 -30 185 -30 187 0 3 32 5 71 5 l71 0 -4 -32z"/>
 <path d="M1573 2023 c-16 -56 -9 -324 10 -393 28 -104 75 -188 147 -260 98 -99 199 -140 342 -140 43 0 98 5 123 12 l45 12 0 163 0 163 -42 -27 c-35 -24 -52 -28 -109 -28 -60 0 -71 3 -106 31 -75 61 -109 174 -100 325 3 47 13 103 21 124 9 20 16 39 16 41 0 2 -76 4 -170 4 l-170 0 -7 -27z"/>
 <path d="M2480 1790 l0 -260 -90 0 -90 0 0 -140 0 -140 340 0 340 0 0 140 0 140 -90 0 -90 0 0 260 0 260 -160 0 -160 0 0 -260z"/>
 <path d="M3080 1650 l0 -400 155 0 155 0 0 400 0 400 -155 0 -155 0 0 -400z"/>
 <path d="M3661 2013 c-18 -68 -171 -742 -171 -753 0 -6 59 -10 165 -10 98 0 165 4 165 10 0 5 18 114 39 243 22 128 45 291 52 363 12 131 28 196 29 119 0 -62 37 -298 81 -523 21 -111 39 -205 39 -207 0 -3 77 -5 171 -5 l171 0 -5 23 c-4 12 -52 192 -108 400 l-103 377 -257 0 -258 0 -10 -37z"/>
 <path d="M4490 1650 l0 -400 155 0 155 0 0 400 0 400 -155 0 -155 0 0 -400z"/>
 <path d="M5219 2011 c-20 -20 -72 -69 -117 -109 -102 -92 -133 -150 -140 -261 -9 -163 68 -308 203 -380 45 -23 61 -26 155 -26 89 0 114 4 165 25 l60 25 3 174 2 173 -55 -50 c-83 -76 -162 -89 -205 -34 -41 52 -24 85 89 171 127 97 181 175 196 284 l7 47 -163 -1 -164 -2 -36 -36z"/>
 <path d="M5820 1790 l0 -260 -90 0 -90 0 0 -140 0 -140 340 0 340 0 0 140 0 140 -90 0 -90 0 0 260 0 260 -160 0 -160 0 0 -260z"/>
 <path d="M6669 2011 c-20 -20 -72 -69 -117 -109 -102 -92 -133 -150 -140 -261 -9 -163 68 -308 203 -380 45 -23 61 -26 155 -26 89 0 114 4 165 25 l60 25 3 174 2 173 -55 -50 c-83 -76 -162 -89 -205 -34 -41 52 -24 85 89 171 127 97 181 175 196 284 l7 47 -163 -1 -164 -2 -36 -36z"/>
 <path d="M869 1061 c-20 -20 -72 -69 -117 -109 -102 -92 -133 -150 -140 -261 -9 -163 68 -308 203 -380 45 -23 61 -26 155 -26 89 0 114 4 165 25 l60 25 3 174 2 173 -55 -50 c-83 -76 -162 -89 -205 -34 -41 52 -24 85 89 171 127 97 181 175 196 284 l7 47 -163 -1 -164 -2 -36 -36z"/>
 <path d="M1470 840 l0 -260 -90 0 -90 0 0 -140 0 -140 340 0 340 0 0 140 0 140 -90 0 -90 0 0 260 0 260 -160 0 -160 0 0 -260z"/>
 <path d="M2060 700 l0 -400 155 0 155 0 0 400 0 400 -155 0 -155 0 0 -400z"/>
 <path d="M2548 700 l2 -400 155 0 155 0 0 400 0 400 -157 0 -158 0 3 -400z"/>
 <path d="M3040 700 l0 -400 183 0 c271 0 374 33 482 152 122 136 170 333 141 581 l-8 67 -168 0 -168 0 15 -51 c24 -80 14 -277 -16 -347 -29 -64 -80 -112 -121 -112 l-30 0 0 255 0 255 -155 0 -155 0 0 -400z"/>
 <path d="M4000 700 l0 -400 295 0 295 0 0 135 0 135 -140 0 -140 0 0 90 0 90 125 0 125 0 0 135 0 135 -125 0 -125 0 0 40 0 40 -155 0 -155 0 0 -400z"/>
 <path d="M4740 700 l0 -401 151 3 151 3 79 205 c44 113 100 268 125 345 46 137 70 190 59 130 -16 -94 -27 -247 -32 -452 l-6 -233 152 0 151 0 0 400 0 400 -222 -2 -223 -3 -52 -150 -52 -150 5 110 c2 61 7 129 10 153 l5 42 -150 0 -151 0 0 -400z"/>
 <path d="M5840 840 l0 -260 -90 0 -90 0 0 -140 0 -140 340 0 340 0 0 140 0 140 -90 0 -90 0 0 260 0 260 -160 0 -160 0 0 -260z"/>
 </g>
<g id="layer2" fill="#f9f9f9" stroke="none">
 <path d="M0 1810 l0 -1810 4100 0 4100 0 0 1810 0 1810 -4100 0 -4100 0 0 -1810z m6367 1554 c61 -17 59 -9 68 -211 6 -125 1 -156 -21 -122 -13 22 -90 49 -138 49 -117 0 -192 -98 -203 -266 -9 -155 25 -267 100 -328 35 -28 46 -31 106 -31 57 0 74 4 109 28 l42 27 0 -163 0 -163 -45 -12 c-60 -16 -188 -15 -252 2 -171 46 -308 190 -359 381 -24 91 -30 292 -10 395 60 320 315 495 603 414z m-4852 -26 c3 -18 9 -53 13 -78 l8 -45 111 -3 c126 -3 115 -12 128 101 l7 57 165 0 165 0 -5 -22 c-3 -13 -58 -270 -122 -573 -64 -302 -119 -560 -122 -572 -5 -23 -6 -23 -199 -23 l-194 0 -7 28 c-4 15 -68 282 -143 595 l-137 567 163 0 163 0 6 -32z m1009 0 c3 -18 10 -139 16 -268 6 -129 13 -287 17 -350 l7 -115 13 95 c7 52 34 224 59 383 l47 287 128 0 c71 0 129 -3 129 -7 0 -3 23 -126 51 -272 28 -146 57 -313 64 -370 16 -117 25 -139 25 -60 0 30 7 189 15 354 8 165 15 312 15 328 l0 27 166 0 167 0 -6 -37 c-3 -21 -29 -289 -58 -595 l-54 -558 -196 0 -196 0 -7 33 c-34 165 -96 525 -96 552 0 67 -17 43 -23 -33 -5 -66 -66 -459 -82 -530 l-5 -22 -197 2 -197 3 -68 575 c-37 316 -67 583 -68 593 0 15 14 17 165 17 l164 0 5 -32z m1656 -108 l0 -139 -137 -3 -138 -3 -3 -92 -3 -93 126 0 125 0 0 -135 0 -135 -125 0 -125 0 0 -90 0 -90 140 0 140 0 0 -135 0 -135 -295 0 -295 0 0 595 0 595 295 0 295 0 0 -140z m462 -106 l3 -247 89 239 c48 132 91 242 95 247 4 4 82 6 173 5 l165 -3 -118 -245 c-104 -215 -117 -246 -103 -255 66 -40 102 -77 132 -135 34 -64 34 -66 30 -175 -5 -126 -23 -177 -85 -246 -95 -105 -183 -129 -480 -129 l-213 0 0 595 0 595 155 0 155 0 2 -246z m958 -349 l0 -595 -155 0 -155 0 0 595 0 595 155 0 155 0 0 -595z m1245 563 c3 -18 9 -53 13 -78 l8 -45 111 -3 c126 -3 115 -12 128 101 l7 57 165 0 165 0 -5 -22 c-3 -13 -58 -270 -122 -573 -64 -302 -119 -560 -122 -572 -5 -23 -6 -23 -199 -23 l-194 0 -7 28 c-4 15 -68 282 -143 595 l-137 567 163 0 163 0 6 -32z m-6125 -868 l0 -80 35 0 c28 0 35 -4 35 -20 0 -16 -7 -20 -35 -20 l-35 0 0 -60 0 -60 45 0 c41 0 45 -2 45 -25 0 -24 -2 -25 -70 -25 l-70 0 0 185 0 185 25 0 c25 0 25 -1 25 -80z m245 74 c33 -13 45 -59 45 -179 0 -153 -15 -185 -90 -185 -15 0 -38 9 -51 19 -22 18 -24 27 -27 141 -2 67 -1 133 2 146 13 52 68 78 121 58z m145 -70 l0 -75 28 3 c26 3 27 5 32 73 5 66 7 70 30 73 l25 3 -5 -74 c-3 -41 -11 -81 -18 -90 -12 -14 -11 -20 2 -39 22 -31 21 -110 -2 -138 -13 -16 -32 -23 -80 -27 l-62 -6 0 187 0 186 25 0 c24 0 25 -2 25 -76z m296 -441 c-3 -10 -37 -166 -75 -348 -39 -181 -75 -354 -81 -382 l-12 -53 -193 0 -194 0 -10 38 c-15 57 -181 750 -181 756 0 3 169 6 376 6 353 0 375 -1 370 -17z m514 13 c0 -2 -7 -21 -16 -41 -8 -21 -18 -77 -21 -124 -9 -151 25 -264 100 -325 35 -28 46 -31 106 -31 57 0 74 4 109 28 l42 27 0 -163 0 -163 -45 -12 c-25 -7 -80 -12 -123 -12 -143 0 -244 41 -342 140 -72 72 -119 156 -147 260 -19 69 -26 337 -10 393 l7 27 170 0 c94 0 170 -2 170 -4z m880 -256 l0 -260 90 0 90 0 0 -140 0 -140 -340 0 -340 0 0 140 0 140 90 0 90 0 0 260 0 260 160 0 160 0 0 -260z m590 -140 l0 -400 -155 0 -155 0 0 400 0 400 155 0 155 0 0 -400z m899 23 c56 -208 104 -388 108 -400 l5 -23 -171 0 c-94 0 -171 2 -171 5 0 2 -18 96 -39 207 -44 225 -81 461 -81 523 -1 77 -17 12 -29 -119 -7 -72 -30 -235 -52 -363 -21 -129 -39 -238 -39 -243 0 -6 -67 -10 -165 -10 -106 0 -165 4 -165 10 0 11 153 685 171 753 l10 37 258 0 257 0 103 -377z m511 -23 l0 -400 -155 0 -155 0 0 400 0 400 155 0 155 0 0 -400z m775 353 c-15 -109 -69 -187 -196 -284 -113 -86 -130 -119 -89 -171 43 -55 122 -42 205 34 l55 50 -2 -173 -3 -174 -60 -25 c-51 -21 -76 -25 -165 -25 -94 0 -110 3 -155 26 -135 72 -212 217 -203 380 7 111 38 169 140 261 45 40 97 89 117 109 l36 36 164 2 163 1 -7 -47z m565 -213 l0 -260 90 0 90 0 0 -140 0 -140 -340 0 -340 0 0 140 0 140 90 0 90 0 0 260 0 260 160 0 160 0 0 -260z m885 213 c-15 -109 -69 -187 -196 -284 -113 -86 -130 -119 -89 -171 43 -55 122 -42 205 34 l55 50 -2 -173 -3 -174 -60 -25 c-51 -21 -76 -25 -165 -25 -94 0 -110 3 -155 26 -135 72 -212 217 -203 380 7 111 38 169 140 261 45 40 97 89 117 109 l36 36 164 2 163 1 -7 -47z m-5800 -950 c-15 -109 -69 -187 -196 -284 -113 -86 -130 -119 -89 -171 43 -55 122 -42 205 34 l55 50 -2 -173 -3 -174 -60 -25 c-51 -21 -76 -25 -165 -25 -94 0 -110 3 -155 26 -135 72 -212 217 -203 380 7 111 38 169 140 261 45 40 97 89 117 109 l36 36 164 2 163 1 -7 -47z m565 -213 l0 -260 90 0 90 0 0 -140 0 -140 -340 0 -340 0 0 140 0 140 90 0 90 0 0 260 0 260 160 0 160 0 0 -260z m580 -140 l0 -400 -155 0 -155 0 0 400 0 400 155 0 155 0 0 -400z m490 0 l0 -400 -155 0 -155 0 -2 400 -3 400 158 0 157 0 0 -400z m490 145 l0 -255 30 0 c41 0 92 48 121 112 30 70 40 267 16 347 l-15 51 168 0 168 0 8 -67 c29 -248 -19 -445 -141 -581 -108 -119 -211 -152 -482 -152 l-183 0 0 400 0 400 155 0 155 0 0 -255z m960 215 l0 -40 125 0 125 0 0 -135 0 -135 -125 0 -125 0 0 -90 0 -90 140 0 140 0 0 -135 0 -135 -295 0 -295 0 0 400 0 400 155 0 155 0 0 -40z m726 -2 c-3 -24 -8 -92 -10 -153 l-5 -110 52 150 52 150 223 3 222 2 0 -400 0 -400 -151 0 -152 0 6 233 c5 205 16 358 32 452 11 60 -13 7 -59 -130 -25 -77 -81 -232 -125 -345 l-79 -205 -151 -3 -151 -3 0 401 0 400 151 0 150 0 -5 -42z m1124 -218 l0 -260 90 0 90 0 0 -140 0 -140 -340 0 -340 0 0 140 0 140 90 0 90 0 0 260 0 260 160 0 160 0 0 -260z"/>
 <path d="M1580 2965 c0 -2 13 -87 30 -187 16 -101 33 -214 38 -253 11 -88 14 -76 43 180 12 110 24 215 27 233 l4 32 -71 0 c-39 0 -71 -2 -71 -5z"/>
 <path d="M4640 2585 l0 -145 31 0 c45 0 98 28 114 61 20 37 19 113 -2 156 -20 42 -66 73 -110 73 l-33 0 0 -145z"/>
 <path d="M6910 2965 c0 -2 13 -87 30 -187 16 -101 33 -214 38 -253 11 -88 14 -76 43 180 12 110 24 215 27 233 l4 32 -71 0 c-39 0 -71 -2 -71 -5z"/>
 <path d="M907 2499 c-15 -9 -17 -27 -17 -134 0 -107 2 -125 17 -134 11 -6 24 -6 35 0 16 9 18 25 18 134 0 109 -2 125 -18 134 -11 6 -24 6 -35 0z"/>
 <path d="M1110 2289 c0 -60 0 -60 28 -57 24 3 27 7 30 46 4 47 -10 72 -39 72 -17 0 -19 -8 -19 -61z"/>
 <path d="M960 2035 c0 -2 13 -87 30 -187 16 -101 33 -214 38 -253 11 -88 14 -76 43 180 12 110 24 215 27 233 l4 32 -71 0 c-39 0 -71 -2 -71 -5z"/>
 </g>

</svg>